<?xml version="1.0" encoding="utf-8"?>
<!-- Generator: Adobe Illustrator 25.1.0, SVG Export Plug-In . SVG Version: 6.00 Build 0)  -->
<svg version="1.1" id="Layer_1" xmlns="http://www.w3.org/2000/svg" xmlns:xlink="http://www.w3.org/1999/xlink" x="0px" y="0px"
	 viewBox="0 0 16 16" style="enable-background:new 0 0 16 16;" xml:space="preserve">
<style type="text/css">
	.st0{fill:#FFFFFF;}
	.st1{clip-path:url(#SVGID_2_);fill:#FFFFFF;}
	.st2{clip-path:url(#SVGID_2_);}
	.st3{clip-path:url(#SVGID_4_);fill:#FFFFFF;}
</style>
<g transform="matrix(.87499 0 0 .87499 .26458 -255.9)">
	<path class="st0" d="M8.8,293.6c-4.4,0-8,3.6-8,8c0,4.4,3.6,8,8,8s8-3.6,8-8C16.8,297.2,13.3,293.6,8.8,293.6z M8.8,294.7
		c3.8,0,6.9,3.1,6.9,6.9c0,3.8-3.1,6.9-6.9,6.9S2,305.4,2,301.6C2,297.8,5.1,294.7,8.8,294.7z"/>
</g>
<g>
	<g>
		<defs>
			<rect id="SVGID_1_" x="3.4" y="4.8" width="9.2" height="6.4"/>
		</defs>
		<clipPath id="SVGID_2_">
			<use xlink:href="#SVGID_1_"  style="overflow:visible;"/>
		</clipPath>
		<rect x="6.9" y="6.4" class="st1" width="1" height="3.1"/>
		<rect x="11.6" y="4.8" class="st1" width="1" height="4.7"/>
		<g class="st2">
			<defs>
				<rect id="SVGID_3_" x="3.4" y="4.8" width="9.2" height="6.4"/>
			</defs>
			<clipPath id="SVGID_4_">
				<use xlink:href="#SVGID_3_"  style="overflow:visible;"/>
			</clipPath>
			<path class="st3" d="M6.2,6.8C5.8,6.5,5.5,6.3,5,6.3c-0.2,0-0.4,0-0.6,0.1v0l0,0c0,0-0.1,0-0.1,0.1l0,0L4.2,6.3H3.4v4.9h1V9.5
				C4.6,9.5,4.8,9.6,5,9.6c0.4,0,0.8-0.2,1.1-0.5C6.5,8.8,6.6,8.4,6.6,8C6.6,7.5,6.5,7.1,6.2,6.8 M5.4,8.4C5.3,8.5,5.2,8.5,5,8.5
				c-0.2,0-0.3-0.1-0.4-0.2C4.5,8.2,4.4,8.1,4.4,7.9c0-0.2,0.1-0.3,0.2-0.4C4.7,7.4,4.9,7.4,5,7.4c0.2,0,0.3,0.1,0.4,0.2
				c0.1,0.1,0.2,0.3,0.2,0.4C5.6,8.1,5.6,8.2,5.4,8.4"/>
			<path class="st3" d="M7.8,5c0.1,0.1,0.2,0.3,0.2,0.4c0,0.2-0.1,0.3-0.2,0.4C7.7,5.9,7.5,6,7.4,6C7.2,6,7.1,5.9,7,5.8
				C6.8,5.7,6.8,5.6,6.8,5.4C6.8,5.2,6.8,5.1,7,5c0.1-0.1,0.2-0.2,0.4-0.2S7.7,4.9,7.8,5"/>
			<path class="st3" d="M11.3,8c0-0.5-0.2-0.8-0.5-1.1c-0.3-0.3-0.7-0.5-1.1-0.5c-0.4,0-0.8,0.2-1.1,0.5C8.3,7.1,8.1,7.5,8.1,8
				c0,0.4,0.2,0.8,0.5,1.1C8.8,9.3,9,9.4,9.2,9.5v1.7h1h0V9.5c0.2-0.1,0.4-0.2,0.6-0.4C11.1,8.8,11.3,8.4,11.3,8 M10.1,8.4
				C10,8.5,9.9,8.5,9.7,8.5c-0.2,0-0.3-0.1-0.4-0.2C9.2,8.2,9.1,8.1,9.1,7.9c0-0.2,0.1-0.3,0.2-0.4c0.1-0.1,0.2-0.2,0.4-0.2
				c0.2,0,0.3,0.1,0.4,0.2c0.1,0.1,0.2,0.3,0.2,0.4C10.3,8.1,10.2,8.2,10.1,8.4"/>
		</g>
	</g>
</g>
</svg>
