<?xml version="1.0" encoding="UTF-8" standalone="no"?>
<!DOCTYPE svg PUBLIC "-//W3C//DTD SVG 1.1//EN" "http://www.w3.org/Graphics/SVG/1.1/DTD/svg11.dtd">
<svg version="1.1" xmlns="http://www.w3.org/2000/svg" xmlns:xlink="http://www.w3.org/1999/xlink" preserveAspectRatio="xMidYMid meet" viewBox="0 0 1024 1024" width="1024" height="1024"><defs><path d="M513 1C230.23 1 1 230.23 1 513C1 795.77 230.23 1025 513 1025C795.77 1025 1025 795.77 1025 513C1025 230.23 795.77 1 513 1Z" id="btGE5ovkY"></path><linearGradient id="gradientb3x7YOMNfD" gradientUnits="userSpaceOnUse" x1="630.08" y1="1476.32" x2="1476.32" y2="513"><stop style="stop-color: #c95200;stop-opacity: 1" offset="0%"></stop><stop style="stop-color: #c57958;stop-opacity: 1" offset="100%"></stop></linearGradient><path d="M325.01 459.4C304.6 415.85 260.38 385.34 209.43 385.34C139.37 385.34 81.79 442.93 81.79 512.99C81.79 583.04 139.37 640.66 209.43 640.66C260.38 640.66 304.6 610.13 325.01 566.57C348.5 648.69 424.26 709.31 513.66 709.31C602.39 709.31 677.77 649.6 701.86 568.41C722.64 610.98 766.32 640.66 816.54 640.66C886.6 640.66 944.21 583.04 944.21 512.99C944.21 442.93 886.6 385.34 816.54 385.34C766.32 385.34 722.64 415 701.86 457.56C677.77 376.38 602.39 316.69 513.66 316.69C424.26 316.69 348.5 377.29 325.01 459.4ZM635.05 512.99C635.05 580.47 581.14 634.38 513.66 634.38C446.18 634.38 392.29 580.47 392.29 512.99C392.29 445.51 446.18 391.62 513.66 391.62C581.14 391.62 635.05 445.51 635.05 512.99ZM262.17 512.99C262.17 542.55 239 565.73 209.43 565.73C179.87 565.73 156.72 542.55 156.72 512.99C156.72 483.42 179.87 460.27 209.43 460.27C239 460.27 262.17 483.42 262.17 512.99ZM869.28 512.99C869.28 542.55 846.11 565.73 816.54 565.73C786.98 565.73 763.83 542.55 763.83 512.99C763.83 483.42 786.98 460.27 816.54 460.27C846.11 460.27 869.28 483.42 869.28 512.99Z" id="d1A6Fmrv"></path></defs><g><g><use xlink:href="#btGE5ovkY" opacity="1" fill="url(#gradientb3x7YOMNfD)"></use><g><use xlink:href="#btGE5ovkY" opacity="1" fill-opacity="0" stroke="#000000" stroke-width="0.09" stroke-opacity="0"></use></g></g><g><use xlink:href="#d1A6Fmrv" opacity="1" fill="#ffffff" fill-opacity="1"></use><g><use xlink:href="#d1A6Fmrv" opacity="1" fill-opacity="0" stroke="#000000" stroke-width="6.1" stroke-opacity="0"></use></g></g></g></svg>