<?xml version="1.0" encoding="UTF-8" standalone="no"?>
<!DOCTYPE svg PUBLIC "-//W3C//DTD SVG 1.1//EN" "http://www.w3.org/Graphics/SVG/1.1/DTD/svg11.dtd">
<svg version="1.1" xmlns="http://www.w3.org/2000/svg" xmlns:xlink="http://www.w3.org/1999/xlink" preserveAspectRatio="xMidYMid meet" viewBox="0 0 256 256" width="256" height="256"><defs><path d="M8 0.99C4.13 0.99 1 4.12 1 7.99C1 11.86 4.13 14.99 8 14.99C11.87 14.99 15 11.86 15 7.99C15 4.12 11.87 0.99 8 0.99Z" id="a1ZM6rieKR"></path><path d="M11.16 9.81C10.51 10.94 9.3 11.63 8 11.63C6.7 11.63 5.49 10.94 4.84 9.81" id="b1kTI9YL0r"></path><path d="M4.84 6.17C5.49 5.04 6.7 4.35 8 4.35C9.3 4.35 10.51 5.04 11.16 6.17" id="b4zzG0JpAd"></path><path d="M5.75 8.88L4.01 8.88L4.01 10.62" id="a1epGwrJcN"></path><path d="M10.31 7.13L12.05 7.13L12.05 5.39" id="a38CemwBz"></path></defs><g><g><use xlink:href="#a1ZM6rieKR" opacity="1" fill="#cc3b0d" fill-opacity="1"></use><g><use xlink:href="#a1ZM6rieKR" opacity="1" fill-opacity="0" stroke="#000000" stroke-width="0.25" stroke-opacity="0"></use></g></g><g><use xlink:href="#b1kTI9YL0r" opacity="1" fill="#000000" fill-opacity="0"></use><g><use xlink:href="#b1kTI9YL0r" opacity="1" fill-opacity="0" stroke="#ffffff" stroke-width="0.44" stroke-opacity="1"></use></g></g><g><use xlink:href="#b4zzG0JpAd" opacity="1" fill="#000000" fill-opacity="0"></use><g><use xlink:href="#b4zzG0JpAd" opacity="1" fill-opacity="0" stroke="#ffffff" stroke-width="0.44" stroke-opacity="1"></use></g></g><g><use xlink:href="#a1epGwrJcN" opacity="1" fill="#000000" fill-opacity="0"></use><g><use xlink:href="#a1epGwrJcN" opacity="1" fill-opacity="0" stroke="#faffff" stroke-width="0.53" stroke-opacity="1"></use></g></g><g><use xlink:href="#a38CemwBz" opacity="1" fill="#000000" fill-opacity="0"></use><g><use xlink:href="#a38CemwBz" opacity="1" fill-opacity="0" stroke="#faffff" stroke-width="0.53" stroke-opacity="1"></use></g></g></g></svg>