<svg xmlns="http://www.w3.org/2000/svg" xmlns:xlink="http://www.w3.org/1999/xlink" viewBox="0 0 1024 1024"><defs><style>.cls-1{fill:none;}.cls-2{fill:#868686;}.cls-3{fill-opacity:0;stroke:#000;stroke-opacity:0;stroke-width:0.09px;}.cls-4{clip-path:url(#clip-path);}.cls-5{fill:#fff;}</style><clipPath id="clip-path"><rect class="cls-1" x="161" y="268.2" width="704" height="489.6"/></clipPath></defs><g id="Layer_1" data-name="Layer 1"><path id="btGE5ovkY" class="cls-2" d="M513,1C230.23,1,1,230.23,1,513s229.23,512,512,512,512-229.23,512-512S795.77,1,513,1Z"/><path id="btGE5ovkY-2" data-name="btGE5ovkY" class="cls-3" d="M513,1C230.23,1,1,230.23,1,513s229.23,512,512,512,512-229.23,512-512S795.77,1,513,1Z"/></g><g id="Layer_2" data-name="Layer 2"><g class="cls-4"><rect class="cls-5" x="424.93" y="389.99" width="78.27" height="237.64"/><rect class="cls-5" x="786.72" y="269.09" width="78.28" height="358.55"/><g class="cls-4"><path class="cls-5" d="M371.16,421.17c-24.35-24.33-52.9-36.88-87-36.88a118.86,118.86,0,0,0-44.91,8.42v0l-.62.29c-3.07,1.26-6.06,2.66-9,4.16l-.71.34-5.68-13.17H161V757.8h78.26V625.24a122.15,122.15,0,0,0,44.91,8.2c33.4,0,62.64-11.82,87-36.18s36.9-53.6,36.9-87.69c0-34.8-12.53-64-36.9-88.4M316,541a44.72,44.72,0,0,1-76.31-31.84c0-12.64,4.29-23.24,13.13-32.09s19.22-13.4,31.59-13.4S307.14,468.19,316,477a43.7,43.7,0,0,1,13.38,32.09c0,12.37-4.54,23-13.38,31.84"/><path class="cls-5" d="M495.52,281.59a43.74,43.74,0,0,1,13.39,32.09c0,12.37-4.55,23-13.39,31.84a44.73,44.73,0,0,1-76.31-31.84c0-12.62,4.29-23.24,13.14-32.09s19.21-13.39,31.59-13.39,22.74,4.54,31.58,13.39"/><path class="cls-5" d="M767.52,509.57c0-34.8-12.53-64-36.9-88.4s-52.89-36.88-87-36.88-62.63,12.55-87,36.88-36.18,53.6-36.18,88.4c0,34.09,11.83,63.34,36.18,87.69,14.4,14.41,30.54,24.39,48.21,30.18V757.8h78.28V627.21c17.4-5.83,33.29-15.74,47.5-30,24.37-24.35,36.9-53.6,36.9-87.69M675.43,541a44.72,44.72,0,0,1-76.3-31.84c0-12.64,4.3-23.24,13.14-32.09s19.21-13.4,31.59-13.4,22.73,4.55,31.57,13.4a43.68,43.68,0,0,1,13.4,32.09c0,12.37-4.55,23-13.4,31.84"/></g></g></g></svg>