<?xml version="1.0" encoding="utf-8"?>
<!-- Generator: Adobe Illustrator 25.1.0, SVG Export Plug-In . SVG Version: 6.00 Build 0)  -->
<svg version="1.1" id="Layer_1" xmlns="http://www.w3.org/2000/svg" xmlns:xlink="http://www.w3.org/1999/xlink" x="0px" y="0px"
	 viewBox="0 0 256 256" style="enable-background:new 0 0 256 256;" xml:space="preserve">
<style type="text/css">
	.st0{clip-path:url(#SVGID_2_);fill:#CB5D32;}
	.st1{clip-path:url(#SVGID_2_);}
	.st2{clip-path:url(#SVGID_4_);fill:#CB5D32;}
</style>
<g>
	<g>
		<defs>
			<rect id="SVGID_1_" x="22.8" y="6.2" width="210.4" height="146.3"/>
		</defs>
		<clipPath id="SVGID_2_">
			<use xlink:href="#SVGID_1_"  style="overflow:visible;"/>
		</clipPath>
		<rect x="101.7" y="42.6" class="st0" width="23.4" height="71"/>
		<rect x="209.8" y="6.4" class="st0" width="23.4" height="107.1"/>
		<g class="st1">
			<defs>
				<rect id="SVGID_3_" x="22.8" y="6.2" width="210.4" height="146.3"/>
			</defs>
			<clipPath id="SVGID_4_">
				<use xlink:href="#SVGID_3_"  style="overflow:visible;"/>
			</clipPath>
			<path class="st2" d="M85.6,51.9c-7.3-7.3-15.8-11-26-11c-4.8,0-9.3,0.9-13.4,2.5v0L46,43.4c-0.9,0.4-1.8,0.8-2.7,1.2l-0.2,0.1
				l-1.7-3.9H22.8v111.6h23.4v-39.6c4.2,1.6,8.7,2.4,13.4,2.4c10,0,18.7-3.5,26-10.8c7.3-7.3,11-16,11-26.2
				C96.6,67.9,92.9,59.2,85.6,51.9 M69.1,87.7c-2.6,2.6-5.8,3.9-9.4,3.9c-3.6,0-6.8-1.3-9.4-3.9c-2.6-2.6-3.9-5.8-3.9-9.5
				c0-3.8,1.3-6.9,3.9-9.6c2.6-2.6,5.7-4,9.4-4c3.7,0,6.8,1.4,9.4,4c2.6,2.6,4,5.8,4,9.6C73.1,81.9,71.8,85,69.1,87.7"/>
			<path class="st2" d="M122.8,10.2c2.6,2.6,4,5.8,4,9.6c0,3.7-1.4,6.9-4,9.5c-2.6,2.6-5.8,3.9-9.4,3.9c-3.6,0-6.8-1.3-9.4-3.9
				c-2.6-2.6-3.9-5.8-3.9-9.5c0-3.8,1.3-6.9,3.9-9.6c2.6-2.6,5.7-4,9.4-4S120.1,7.5,122.8,10.2"/>
			<path class="st2" d="M204.1,78.3c0-10.4-3.7-19.1-11-26.4c-7.3-7.3-15.8-11-26-11c-10.2,0-18.7,3.7-26,11
				c-7.3,7.3-10.8,16-10.8,26.4c0,10.2,3.5,18.9,10.8,26.2c4.3,4.3,9.1,7.3,14.4,9v39h23.4h0v-39c5.2-1.7,9.9-4.7,14.2-8.9
				C200.3,97.2,204.1,88.5,204.1,78.3 M176.5,87.7c-2.6,2.6-5.8,3.9-9.4,3.9c-3.6,0-6.8-1.3-9.4-3.9c-2.6-2.6-3.9-5.8-3.9-9.5
				c0-3.8,1.3-6.9,3.9-9.6c2.6-2.6,5.7-4,9.4-4c3.7,0,6.8,1.4,9.4,4c2.6,2.6,4,5.8,4,9.6C180.5,81.9,179.2,85,176.5,87.7"/>
		</g>
	</g>
</g>
</svg>
