<?xml version="1.0" encoding="UTF-8" standalone="no"?>
<!DOCTYPE svg PUBLIC "-//W3C//DTD SVG 1.1//EN" "http://www.w3.org/Graphics/SVG/1.1/DTD/svg11.dtd">
<svg version="1.1" xmlns="http://www.w3.org/2000/svg" xmlns:xlink="http://www.w3.org/1999/xlink" preserveAspectRatio="xMidYMid meet" viewBox="0 0 256 256" width="256" height="256"><defs><path d="M40 38C25.64 38 14 49.64 14 64C14 78.36 25.64 90 40 90C54.36 90 66 78.36 66 64C66 49.64 54.36 38 40 38Z" id="e5uZSKATiT"></path><path d="M216 38C201.64 38 190 49.64 190 64C190 78.36 201.64 90 216 90C230.36 90 242 78.36 242 64C242 49.64 230.36 38 216 38Z" id="e1Kl2wPHBM"></path><path d="M128 18C102.59 18 82 38.59 82 64C82 89.41 102.59 110 128 110C153.41 110 174 89.41 174 64C174 38.59 153.41 18 128 18Z" id="aan1OmTSs"></path></defs><g><g><use xlink:href="#e5uZSKATiT" opacity="1" fill="#000000" fill-opacity="0"></use><g><use xlink:href="#e5uZSKATiT" opacity="1" fill-opacity="0" stroke="#cc3b0d" stroke-width="22" stroke-opacity="1"></use></g></g><g><use xlink:href="#e1Kl2wPHBM" opacity="1" fill="#000000" fill-opacity="0"></use><g><use xlink:href="#e1Kl2wPHBM" opacity="1" fill-opacity="0" stroke="#cc3b0d" stroke-width="22" stroke-opacity="1"></use></g></g><g><use xlink:href="#aan1OmTSs" opacity="1" fill="#000000" fill-opacity="0"></use><g><use xlink:href="#aan1OmTSs" opacity="1" fill-opacity="0" stroke="#cc3b0d" stroke-width="22" stroke-opacity="1"></use></g></g></g></svg>